<?xml version="1.0" encoding="UTF-8" standalone="no"?>
<!DOCTYPE svg PUBLIC "-//W3C//DTD SVG 1.1//EN"
 "http://www.w3.org/Graphics/SVG/1.1/DTD/svg11.dtd">
<!-- Generated by graphviz version 2.38.0 (20140413.2041)
 -->
<!-- Title: snakemake_dag Pages: 1 -->
<svg width="690pt" height="548pt"
 viewBox="0.00 0.00 690.32 548.00" xmlns="http://www.w3.org/2000/svg" xmlns:xlink="http://www.w3.org/1999/xlink">
<g id="graph0" class="graph" transform="scale(1 1) rotate(0) translate(4 544)">
<title>snakemake_dag</title>
<polygon fill="white" stroke="none" points="-4,4 -4,-544 686.321,-544 686.321,4 -4,4"/>
<!-- 0 -->
<g id="node1" class="node"><title>0</title>
<path fill="none" stroke="#56d8a9" stroke-width="2" d="M284,-36C284,-36 212,-36 212,-36 206,-36 200,-30 200,-24 200,-24 200,-12 200,-12 200,-6 206,-0 212,-0 212,-0 284,-0 284,-0 290,-0 296,-6 296,-12 296,-12 296,-24 296,-24 296,-30 290,-36 284,-36"/>
<text text-anchor="middle" x="248" y="-15.5" font-family="sans" font-size="10.00">make_summary</text>
</g>
<!-- 1 -->
<g id="node2" class="node"><title>1</title>
<path fill="none" stroke="#d87556" stroke-width="2" d="M56,-108C56,-108 12,-108 12,-108 6,-108 0,-102 0,-96 0,-96 0,-84 0,-84 0,-78 6,-72 12,-72 12,-72 56,-72 56,-72 62,-72 68,-78 68,-84 68,-84 68,-96 68,-96 68,-102 62,-108 56,-108"/>
<text text-anchor="middle" x="34" y="-87.5" font-family="sans" font-size="10.00">make_dag</text>
</g>
<!-- 1&#45;&gt;0 -->
<g id="edge1" class="edge"><title>1&#45;&gt;0</title>
<path fill="none" stroke="grey" stroke-width="2" d="M68.0428,-76.795C72.7242,-75.16 77.4756,-73.5231 82,-72 117.858,-59.9293 158.298,-47.0034 190.285,-36.9387"/>
<polygon fill="grey" stroke="grey" stroke-width="2" points="191.434,-40.2464 199.926,-33.9112 189.337,-33.5679 191.434,-40.2464"/>
</g>
<!-- 2 -->
<g id="node3" class="node"><title>2</title>
<path fill="none" stroke="#56d88a" stroke-width="2" d="M188.5,-540C188.5,-540 75.5,-540 75.5,-540 69.5,-540 63.5,-534 63.5,-528 63.5,-528 63.5,-516 63.5,-516 63.5,-510 69.5,-504 75.5,-504 75.5,-504 188.5,-504 188.5,-504 194.5,-504 200.5,-510 200.5,-516 200.5,-516 200.5,-528 200.5,-528 200.5,-534 194.5,-540 188.5,-540"/>
<text text-anchor="middle" x="132" y="-519.5" font-family="sans" font-size="10.00">get_codon_variant_table</text>
</g>
<!-- 2&#45;&gt;0 -->
<g id="edge2" class="edge"><title>2&#45;&gt;0</title>
<path fill="none" stroke="grey" stroke-width="2" d="M124.715,-503.867C114.196,-477.531 96,-425.288 96,-379 96,-379 96,-379 96,-161 96,-115.41 114.171,-103.633 147,-72 160.231,-59.2506 177.14,-48.7805 193.322,-40.6124"/>
<polygon fill="grey" stroke="grey" stroke-width="2" points="195.249,-43.5689 202.732,-36.0694 192.205,-37.2651 195.249,-43.5689"/>
</g>
<!-- 3 -->
<g id="node4" class="node"><title>3</title>
<path fill="none" stroke="#567bd8" stroke-width="2" d="M201.5,-468C201.5,-468 136.5,-468 136.5,-468 130.5,-468 124.5,-462 124.5,-456 124.5,-456 124.5,-444 124.5,-444 124.5,-438 130.5,-432 136.5,-432 136.5,-432 201.5,-432 201.5,-432 207.5,-432 213.5,-438 213.5,-444 213.5,-444 213.5,-456 213.5,-456 213.5,-462 207.5,-468 201.5,-468"/>
<text text-anchor="middle" x="169" y="-447.5" font-family="sans" font-size="10.00">count_variants</text>
</g>
<!-- 2&#45;&gt;3 -->
<g id="edge12" class="edge"><title>2&#45;&gt;3</title>
<path fill="none" stroke="grey" stroke-width="2" d="M141.146,-503.697C145.403,-495.644 150.556,-485.894 155.266,-476.982"/>
<polygon fill="grey" stroke="grey" stroke-width="2" points="158.38,-478.581 159.959,-468.104 152.192,-475.31 158.38,-478.581"/>
</g>
<!-- 3&#45;&gt;0 -->
<g id="edge3" class="edge"><title>3&#45;&gt;0</title>
<path fill="none" stroke="grey" stroke-width="2" d="M161.917,-431.848C151.69,-405.487 134,-353.211 134,-307 134,-307 134,-307 134,-161 134,-109.997 179.274,-66.8836 212.759,-41.971"/>
<polygon fill="grey" stroke="grey" stroke-width="2" points="214.923,-44.7258 220.984,-36.0357 210.826,-39.0495 214.923,-44.7258"/>
</g>
<!-- 4 -->
<g id="node5" class="node"><title>4</title>
<path fill="none" stroke="#569ad8" stroke-width="2" d="M350.5,-396C350.5,-396 273.5,-396 273.5,-396 267.5,-396 261.5,-390 261.5,-384 261.5,-384 261.5,-372 261.5,-372 261.5,-366 267.5,-360 273.5,-360 273.5,-360 350.5,-360 350.5,-360 356.5,-360 362.5,-366 362.5,-372 362.5,-372 362.5,-384 362.5,-384 362.5,-390 356.5,-396 350.5,-396"/>
<text text-anchor="middle" x="312" y="-375.5" font-family="sans" font-size="10.00">counts_to_scores</text>
</g>
<!-- 3&#45;&gt;4 -->
<g id="edge13" class="edge"><title>3&#45;&gt;4</title>
<path fill="none" stroke="grey" stroke-width="2" d="M203.982,-431.876C223.198,-422.469 247.226,-410.708 267.737,-400.667"/>
<polygon fill="grey" stroke="grey" stroke-width="2" points="269.441,-403.73 276.884,-396.19 266.363,-397.443 269.441,-403.73"/>
</g>
<!-- 4&#45;&gt;0 -->
<g id="edge4" class="edge"><title>4&#45;&gt;0</title>
<path fill="none" stroke="grey" stroke-width="2" d="M275.582,-359.814C234.101,-337.416 172,-294.026 172,-235 172,-235 172,-235 172,-161 172,-115.641 202.517,-70.7492 224.875,-43.9457"/>
<polygon fill="grey" stroke="grey" stroke-width="2" points="227.645,-46.0926 231.509,-36.2276 222.336,-41.5297 227.645,-46.0926"/>
</g>
<!-- 5 -->
<g id="node6" class="node"><title>5</title>
<path fill="none" stroke="#ced856" stroke-width="2" d="M376.5,-324C376.5,-324 273.5,-324 273.5,-324 267.5,-324 261.5,-318 261.5,-312 261.5,-312 261.5,-300 261.5,-300 261.5,-294 267.5,-288 273.5,-288 273.5,-288 376.5,-288 376.5,-288 382.5,-288 388.5,-294 388.5,-300 388.5,-300 388.5,-312 388.5,-312 388.5,-318 382.5,-324 376.5,-324"/>
<text text-anchor="middle" x="325" y="-303.5" font-family="sans" font-size="10.00">scores_to_frac_escape</text>
</g>
<!-- 4&#45;&gt;5 -->
<g id="edge17" class="edge"><title>4&#45;&gt;5</title>
<path fill="none" stroke="grey" stroke-width="2" d="M315.213,-359.697C316.646,-351.983 318.368,-342.712 319.965,-334.112"/>
<polygon fill="grey" stroke="grey" stroke-width="2" points="323.439,-334.575 321.823,-324.104 316.556,-333.297 323.439,-334.575"/>
</g>
<!-- 5&#45;&gt;0 -->
<g id="edge5" class="edge"><title>5&#45;&gt;0</title>
<path fill="none" stroke="grey" stroke-width="2" d="M317.888,-287.77C310.335,-269.718 297.87,-240.617 286,-216 278.142,-199.704 272.373,-197.275 267,-180 252.881,-134.606 249.122,-79.0259 248.199,-46.4623"/>
<polygon fill="grey" stroke="grey" stroke-width="2" points="251.695,-46.2725 247.983,-36.3493 244.697,-46.4216 251.695,-46.2725"/>
</g>
<!-- 6 -->
<g id="node7" class="node"><title>6</title>
<path fill="none" stroke="#68d856" stroke-width="2" d="M633,-252C633,-252 521,-252 521,-252 515,-252 509,-246 509,-240 509,-240 509,-228 509,-228 509,-222 515,-216 521,-216 521,-216 633,-216 633,-216 639,-216 645,-222 645,-228 645,-228 645,-240 645,-240 645,-246 639,-252 633,-252"/>
<text text-anchor="middle" x="577" y="-231.5" font-family="sans" font-size="10.00">analyze_escape_profiles</text>
</g>
<!-- 5&#45;&gt;6 -->
<g id="edge18" class="edge"><title>5&#45;&gt;6</title>
<path fill="none" stroke="grey" stroke-width="2" d="M386.324,-287.966C422.299,-277.972 467.926,-265.298 505.526,-254.854"/>
<polygon fill="grey" stroke="grey" stroke-width="2" points="506.703,-258.16 515.401,-252.111 504.829,-251.415 506.703,-258.16"/>
</g>
<!-- 7 -->
<g id="node8" class="node"><title>7</title>
<path fill="none" stroke="#afd856" stroke-width="2" d="M383.5,-180C383.5,-180 288.5,-180 288.5,-180 282.5,-180 276.5,-174 276.5,-168 276.5,-168 276.5,-156 276.5,-156 276.5,-150 282.5,-144 288.5,-144 288.5,-144 383.5,-144 383.5,-144 389.5,-144 395.5,-150 395.5,-156 395.5,-156 395.5,-168 395.5,-168 395.5,-174 389.5,-180 383.5,-180"/>
<text text-anchor="middle" x="336" y="-159.5" font-family="sans" font-size="10.00">mds_escape_profiles</text>
</g>
<!-- 5&#45;&gt;7 -->
<g id="edge20" class="edge"><title>5&#45;&gt;7</title>
<path fill="none" stroke="grey" stroke-width="2" d="M326.327,-287.871C328.202,-263.67 331.646,-219.211 333.878,-190.393"/>
<polygon fill="grey" stroke="grey" stroke-width="2" points="337.386,-190.43 334.668,-180.189 330.406,-189.889 337.386,-190.43"/>
</g>
<!-- 8 -->
<g id="node9" class="node"><title>8</title>
<path fill="none" stroke="#d8bc56" stroke-width="2" d="M265.5,-252C265.5,-252 212.5,-252 212.5,-252 206.5,-252 200.5,-246 200.5,-240 200.5,-240 200.5,-228 200.5,-228 200.5,-222 206.5,-216 212.5,-216 212.5,-216 265.5,-216 265.5,-216 271.5,-216 277.5,-222 277.5,-228 277.5,-228 277.5,-240 277.5,-240 277.5,-246 271.5,-252 265.5,-252"/>
<text text-anchor="middle" x="239" y="-231.5" font-family="sans" font-size="10.00">output_pdbs</text>
</g>
<!-- 5&#45;&gt;8 -->
<g id="edge21" class="edge"><title>5&#45;&gt;8</title>
<path fill="none" stroke="grey" stroke-width="2" d="M303.742,-287.697C292.911,-278.881 279.582,-268.032 267.84,-258.474"/>
<polygon fill="grey" stroke="grey" stroke-width="2" points="269.979,-255.703 260.014,-252.104 265.56,-261.132 269.979,-255.703"/>
</g>
<!-- 11 -->
<g id="node12" class="node"><title>11</title>
<path fill="none" stroke="#d85656" stroke-width="2" d="M502,-180C502,-180 426,-180 426,-180 420,-180 414,-174 414,-168 414,-168 414,-156 414,-156 414,-150 420,-144 426,-144 426,-144 502,-144 502,-144 508,-144 514,-150 514,-156 514,-156 514,-168 514,-168 514,-174 508,-180 502,-180"/>
<text text-anchor="middle" x="464" y="-159.5" font-family="sans" font-size="10.00">make_supp_data</text>
</g>
<!-- 5&#45;&gt;11 -->
<g id="edge25" class="edge"><title>5&#45;&gt;11</title>
<path fill="none" stroke="grey" stroke-width="2" d="M341.767,-287.871C366.291,-262.817 412.069,-216.052 440.109,-187.406"/>
<polygon fill="grey" stroke="grey" stroke-width="2" points="442.68,-189.784 447.174,-180.189 437.678,-184.887 442.68,-189.784"/>
</g>
<!-- 6&#45;&gt;0 -->
<g id="edge6" class="edge"><title>6&#45;&gt;0</title>
<path fill="none" stroke="grey" stroke-width="2" d="M628.648,-215.965C645.14,-207.803 661.55,-196.177 671,-180 696.593,-136.189 675.405,-101.327 634,-72 582.525,-35.54 401.172,-24.0743 306.508,-20.5361"/>
<polygon fill="grey" stroke="grey" stroke-width="2" points="306.357,-17.0286 296.239,-20.1707 306.108,-24.0241 306.357,-17.0286"/>
</g>
<!-- 9 -->
<g id="node10" class="node"><title>9</title>
<path fill="none" stroke="#56d86b" stroke-width="2" d="M633.5,-180C633.5,-180 544.5,-180 544.5,-180 538.5,-180 532.5,-174 532.5,-168 532.5,-168 532.5,-156 532.5,-156 532.5,-150 538.5,-144 544.5,-144 544.5,-144 633.5,-144 633.5,-144 639.5,-144 645.5,-150 645.5,-156 645.5,-156 645.5,-168 645.5,-168 645.5,-174 639.5,-180 633.5,-180"/>
<text text-anchor="middle" x="589" y="-159.5" font-family="sans" font-size="10.00">circulating_variants</text>
</g>
<!-- 6&#45;&gt;9 -->
<g id="edge22" class="edge"><title>6&#45;&gt;9</title>
<path fill="none" stroke="grey" stroke-width="2" d="M579.966,-215.697C581.289,-207.983 582.878,-198.712 584.352,-190.112"/>
<polygon fill="grey" stroke="grey" stroke-width="2" points="587.828,-190.552 586.068,-180.104 580.928,-189.369 587.828,-190.552"/>
</g>
<!-- 10 -->
<g id="node11" class="node"><title>10</title>
<path fill="none" stroke="#56d8d0" stroke-width="2" d="M613,-108C613,-108 565,-108 565,-108 559,-108 553,-102 553,-96 553,-96 553,-84 553,-84 553,-78 559,-72 565,-72 565,-72 613,-72 613,-72 619,-72 625,-78 625,-84 625,-84 625,-96 625,-96 625,-102 619,-108 613,-108"/>
<text text-anchor="middle" x="589" y="-87.5" font-family="sans" font-size="10.00">crowe_evol</text>
</g>
<!-- 6&#45;&gt;10 -->
<g id="edge23" class="edge"><title>6&#45;&gt;10</title>
<path fill="none" stroke="grey" stroke-width="2" d="M617.18,-215.771C631.831,-207.28 646.802,-195.482 655,-180 662.487,-165.86 661.918,-158.427 655,-144 649.335,-132.185 639.609,-122.171 629.339,-114.136"/>
<polygon fill="grey" stroke="grey" stroke-width="2" points="631.202,-111.163 621.053,-108.12 627.089,-116.828 631.202,-111.163"/>
</g>
<!-- 6&#45;&gt;11 -->
<g id="edge26" class="edge"><title>6&#45;&gt;11</title>
<path fill="none" stroke="grey" stroke-width="2" d="M549.357,-215.876C534.582,-206.724 516.209,-195.342 500.297,-185.485"/>
<polygon fill="grey" stroke="grey" stroke-width="2" points="502.093,-182.481 491.749,-180.19 498.407,-188.431 502.093,-182.481"/>
</g>
<!-- 7&#45;&gt;0 -->
<g id="edge7" class="edge"><title>7&#45;&gt;0</title>
<path fill="none" stroke="grey" stroke-width="2" d="M325.385,-143.871C310.123,-119.244 281.86,-73.6377 264.041,-44.8845"/>
<polygon fill="grey" stroke="grey" stroke-width="2" points="266.895,-42.8457 258.653,-36.1893 260.945,-46.5331 266.895,-42.8457"/>
</g>
<!-- 8&#45;&gt;0 -->
<g id="edge8" class="edge"><title>8&#45;&gt;0</title>
<path fill="none" stroke="grey" stroke-width="2" d="M236.696,-215.992C233.1,-186.526 227.23,-124.136 234,-72 235.103,-63.506 237.161,-54.4338 239.366,-46.2397"/>
<polygon fill="grey" stroke="grey" stroke-width="2" points="242.784,-47.0172 242.176,-36.4397 236.055,-45.0872 242.784,-47.0172"/>
</g>
<!-- 9&#45;&gt;0 -->
<g id="edge9" class="edge"><title>9&#45;&gt;0</title>
<path fill="none" stroke="grey" stroke-width="2" d="M547.867,-143.871C485.314,-117.823 366.4,-68.3044 298.628,-40.0826"/>
<polygon fill="grey" stroke="grey" stroke-width="2" points="299.59,-36.6918 289.013,-36.0786 296.899,-43.1539 299.59,-36.6918"/>
</g>
<!-- 9&#45;&gt;10 -->
<g id="edge24" class="edge"><title>9&#45;&gt;10</title>
<path fill="none" stroke="grey" stroke-width="2" d="M589,-143.697C589,-135.983 589,-126.712 589,-118.112"/>
<polygon fill="grey" stroke="grey" stroke-width="2" points="592.5,-118.104 589,-108.104 585.5,-118.104 592.5,-118.104"/>
</g>
<!-- 10&#45;&gt;0 -->
<g id="edge10" class="edge"><title>10&#45;&gt;0</title>
<path fill="none" stroke="grey" stroke-width="2" d="M552.83,-81.575C493.934,-69.485 376.801,-45.4402 306.122,-30.9312"/>
<polygon fill="grey" stroke="grey" stroke-width="2" points="306.543,-27.4447 296.043,-28.8623 305.135,-34.3017 306.543,-27.4447"/>
</g>
<!-- 11&#45;&gt;0 -->
<g id="edge11" class="edge"><title>11&#45;&gt;0</title>
<path fill="none" stroke="grey" stroke-width="2" d="M437.945,-143.871C399.105,-118.338 325.962,-70.253 282.653,-41.7808"/>
<polygon fill="grey" stroke="grey" stroke-width="2" points="284.426,-38.758 274.147,-36.1893 280.58,-44.6073 284.426,-38.758"/>
</g>
<!-- 12 -->
<g id="node13" class="node"><title>12</title>
<path fill="none" stroke="#56c1d8" stroke-width="2" d="M590,-468C590,-468 504,-468 504,-468 498,-468 492,-462 492,-456 492,-456 492,-444 492,-444 492,-438 498,-432 504,-432 504,-432 590,-432 590,-432 596,-432 602,-438 602,-444 602,-444 602,-456 602,-456 602,-462 596,-468 590,-468"/>
<text text-anchor="middle" x="547" y="-447.5" font-family="sans" font-size="10.00">get_mut_bind_expr</text>
</g>
<!-- 12&#45;&gt;4 -->
<g id="edge14" class="edge"><title>12&#45;&gt;4</title>
<path fill="none" stroke="grey" stroke-width="2" d="M491.903,-432.588C456.037,-421.905 409.244,-407.966 372.371,-396.983"/>
<polygon fill="grey" stroke="grey" stroke-width="2" points="373.321,-393.614 362.738,-394.114 371.323,-400.323 373.321,-393.614"/>
</g>
<!-- 12&#45;&gt;6 -->
<g id="edge19" class="edge"><title>12&#45;&gt;6</title>
<path fill="none" stroke="grey" stroke-width="2" d="M549.404,-431.849C554.594,-394.832 566.881,-307.181 573.161,-262.386"/>
<polygon fill="grey" stroke="grey" stroke-width="2" points="576.662,-262.622 574.584,-252.232 569.73,-261.65 576.662,-262.622"/>
</g>
<!-- 13 -->
<g id="node14" class="node"><title>13</title>
<path fill="none" stroke="#88d856" stroke-width="2" d="M450.5,-468C450.5,-468 375.5,-468 375.5,-468 369.5,-468 363.5,-462 363.5,-456 363.5,-456 363.5,-444 363.5,-444 363.5,-438 369.5,-432 375.5,-432 375.5,-432 450.5,-432 450.5,-432 456.5,-432 462.5,-438 462.5,-444 462.5,-444 462.5,-456 462.5,-456 462.5,-462 456.5,-468 450.5,-468"/>
<text text-anchor="middle" x="413" y="-447.5" font-family="sans" font-size="10.00">get_variant_expr</text>
</g>
<!-- 13&#45;&gt;4 -->
<g id="edge15" class="edge"><title>13&#45;&gt;4</title>
<path fill="none" stroke="grey" stroke-width="2" d="M388.293,-431.876C375.331,-422.893 359.272,-411.763 345.235,-402.034"/>
<polygon fill="grey" stroke="grey" stroke-width="2" points="347.015,-399.009 336.802,-396.19 343.028,-404.763 347.015,-399.009"/>
</g>
<!-- 14 -->
<g id="node15" class="node"><title>14</title>
<path fill="none" stroke="#d89c56" stroke-width="2" d="M333,-468C333,-468 259,-468 259,-468 253,-468 247,-462 247,-456 247,-456 247,-444 247,-444 247,-438 253,-432 259,-432 259,-432 333,-432 333,-432 339,-432 345,-438 345,-444 345,-444 345,-456 345,-456 345,-462 339,-468 333,-468"/>
<text text-anchor="middle" x="296" y="-447.5" font-family="sans" font-size="10.00">get_variant_bind</text>
</g>
<!-- 14&#45;&gt;4 -->
<g id="edge16" class="edge"><title>14&#45;&gt;4</title>
<path fill="none" stroke="grey" stroke-width="2" d="M299.955,-431.697C301.718,-423.983 303.837,-414.712 305.803,-406.112"/>
<polygon fill="grey" stroke="grey" stroke-width="2" points="309.274,-406.633 308.09,-396.104 302.45,-405.073 309.274,-406.633"/>
</g>
</g>
</svg>
