<?xml version="1.0" encoding="UTF-8" standalone="no"?>
<!DOCTYPE svg PUBLIC "-//W3C//DTD SVG 1.1//EN"
 "http://www.w3.org/Graphics/SVG/1.1/DTD/svg11.dtd">
<!-- Generated by graphviz version 2.38.0 (20140413.2041)
 -->
<!-- Title: snakemake_dag Pages: 1 -->
<svg width="748pt" height="548pt"
 viewBox="0.00 0.00 747.91 548.00" xmlns="http://www.w3.org/2000/svg" xmlns:xlink="http://www.w3.org/1999/xlink">
<g id="graph0" class="graph" transform="scale(1 1) rotate(0) translate(4 544)">
<title>snakemake_dag</title>
<polygon fill="white" stroke="none" points="-4,4 -4,-544 743.914,-544 743.914,4 -4,4"/>
<!-- 0 -->
<g id="node1" class="node"><title>0</title>
<path fill="none" stroke="#d6d856" stroke-width="2" d="M375,-36C375,-36 303,-36 303,-36 297,-36 291,-30 291,-24 291,-24 291,-12 291,-12 291,-6 297,-0 303,-0 303,-0 375,-0 375,-0 381,-0 387,-6 387,-12 387,-12 387,-24 387,-24 387,-30 381,-36 375,-36"/>
<text text-anchor="middle" x="339" y="-15.5" font-family="sans" font-size="10.00">make_summary</text>
</g>
<!-- 1 -->
<g id="node2" class="node"><title>1</title>
<path fill="none" stroke="#59d856" stroke-width="2" d="M56,-108C56,-108 12,-108 12,-108 6,-108 0,-102 0,-96 0,-96 0,-84 0,-84 0,-78 6,-72 12,-72 12,-72 56,-72 56,-72 62,-72 68,-78 68,-84 68,-84 68,-96 68,-96 68,-102 62,-108 56,-108"/>
<text text-anchor="middle" x="34" y="-87.5" font-family="sans" font-size="10.00">make_dag</text>
</g>
<!-- 1&#45;&gt;0 -->
<g id="edge1" class="edge"><title>1&#45;&gt;0</title>
<path fill="none" stroke="grey" stroke-width="2" d="M68.1657,-76.2578C72.7847,-74.7242 77.4866,-73.2582 82,-72 149.265,-53.2477 228.116,-37.9506 280.564,-28.6938"/>
<polygon fill="grey" stroke="grey" stroke-width="2" points="281.442,-32.0935 290.69,-26.9238 280.236,-25.198 281.442,-32.0935"/>
</g>
<!-- 2 -->
<g id="node3" class="node"><title>2</title>
<path fill="none" stroke="#56b9d8" stroke-width="2" d="M188.5,-540C188.5,-540 75.5,-540 75.5,-540 69.5,-540 63.5,-534 63.5,-528 63.5,-528 63.5,-516 63.5,-516 63.5,-510 69.5,-504 75.5,-504 75.5,-504 188.5,-504 188.5,-504 194.5,-504 200.5,-510 200.5,-516 200.5,-516 200.5,-528 200.5,-528 200.5,-534 194.5,-540 188.5,-540"/>
<text text-anchor="middle" x="132" y="-519.5" font-family="sans" font-size="10.00">get_codon_variant_table</text>
</g>
<!-- 2&#45;&gt;0 -->
<g id="edge2" class="edge"><title>2&#45;&gt;0</title>
<path fill="none" stroke="grey" stroke-width="2" d="M124.715,-503.867C114.196,-477.531 96,-425.288 96,-379 96,-379 96,-379 96,-161 96,-115.41 110.981,-99.9478 147,-72 185.409,-42.1979 239.535,-29.1445 280.534,-23.4319"/>
<polygon fill="grey" stroke="grey" stroke-width="2" points="281.184,-26.8773 290.656,-22.132 280.292,-19.9343 281.184,-26.8773"/>
</g>
<!-- 3 -->
<g id="node4" class="node"><title>3</title>
<path fill="none" stroke="#56d8d8" stroke-width="2" d="M201.5,-468C201.5,-468 136.5,-468 136.5,-468 130.5,-468 124.5,-462 124.5,-456 124.5,-456 124.5,-444 124.5,-444 124.5,-438 130.5,-432 136.5,-432 136.5,-432 201.5,-432 201.5,-432 207.5,-432 213.5,-438 213.5,-444 213.5,-444 213.5,-456 213.5,-456 213.5,-462 207.5,-468 201.5,-468"/>
<text text-anchor="middle" x="169" y="-447.5" font-family="sans" font-size="10.00">count_variants</text>
</g>
<!-- 2&#45;&gt;3 -->
<g id="edge13" class="edge"><title>2&#45;&gt;3</title>
<path fill="none" stroke="grey" stroke-width="2" d="M141.146,-503.697C145.403,-495.644 150.556,-485.894 155.266,-476.982"/>
<polygon fill="grey" stroke="grey" stroke-width="2" points="158.38,-478.581 159.959,-468.104 152.192,-475.31 158.38,-478.581"/>
</g>
<!-- 3&#45;&gt;0 -->
<g id="edge3" class="edge"><title>3&#45;&gt;0</title>
<path fill="none" stroke="grey" stroke-width="2" d="M161.917,-431.848C151.69,-405.487 134,-353.211 134,-307 134,-307 134,-307 134,-161 134,-114.501 152.798,-101.182 189,-72 215.467,-50.6647 251.159,-37.5935 281.087,-29.7716"/>
<polygon fill="grey" stroke="grey" stroke-width="2" points="282.13,-33.1192 290.994,-27.3159 280.445,-26.3248 282.13,-33.1192"/>
</g>
<!-- 4 -->
<g id="node5" class="node"><title>4</title>
<path fill="none" stroke="#56d89a" stroke-width="2" d="M371.5,-396C371.5,-396 294.5,-396 294.5,-396 288.5,-396 282.5,-390 282.5,-384 282.5,-384 282.5,-372 282.5,-372 282.5,-366 288.5,-360 294.5,-360 294.5,-360 371.5,-360 371.5,-360 377.5,-360 383.5,-366 383.5,-372 383.5,-372 383.5,-384 383.5,-384 383.5,-390 377.5,-396 371.5,-396"/>
<text text-anchor="middle" x="333" y="-375.5" font-family="sans" font-size="10.00">counts_to_scores</text>
</g>
<!-- 3&#45;&gt;4 -->
<g id="edge14" class="edge"><title>3&#45;&gt;4</title>
<path fill="none" stroke="grey" stroke-width="2" d="M209.119,-431.876C231.638,-422.264 259.918,-410.193 283.771,-400.013"/>
<polygon fill="grey" stroke="grey" stroke-width="2" points="285.188,-403.213 293.011,-396.068 282.44,-396.775 285.188,-403.213"/>
</g>
<!-- 4&#45;&gt;0 -->
<g id="edge4" class="edge"><title>4&#45;&gt;0</title>
<path fill="none" stroke="grey" stroke-width="2" d="M287.724,-359.821C240.104,-338.457 172,-297.054 172,-235 172,-235 172,-235 172,-161 172,-101.829 233.6,-62.1531 281.976,-40.1183"/>
<polygon fill="grey" stroke="grey" stroke-width="2" points="283.406,-43.3132 291.145,-36.0772 280.582,-36.9078 283.406,-43.3132"/>
</g>
<!-- 5 -->
<g id="node6" class="node"><title>5</title>
<path fill="none" stroke="#d8b456" stroke-width="2" d="M437.5,-324C437.5,-324 334.5,-324 334.5,-324 328.5,-324 322.5,-318 322.5,-312 322.5,-312 322.5,-300 322.5,-300 322.5,-294 328.5,-288 334.5,-288 334.5,-288 437.5,-288 437.5,-288 443.5,-288 449.5,-294 449.5,-300 449.5,-300 449.5,-312 449.5,-312 449.5,-318 443.5,-324 437.5,-324"/>
<text text-anchor="middle" x="386" y="-303.5" font-family="sans" font-size="10.00">scores_to_frac_escape</text>
</g>
<!-- 4&#45;&gt;5 -->
<g id="edge18" class="edge"><title>4&#45;&gt;5</title>
<path fill="none" stroke="grey" stroke-width="2" d="M346.101,-359.697C352.391,-351.389 360.047,-341.277 366.965,-332.141"/>
<polygon fill="grey" stroke="grey" stroke-width="2" points="369.804,-334.19 373.05,-324.104 364.223,-329.964 369.804,-334.19"/>
</g>
<!-- 5&#45;&gt;0 -->
<g id="edge5" class="edge"><title>5&#45;&gt;0</title>
<path fill="none" stroke="grey" stroke-width="2" d="M349.009,-287.933C310.917,-268.07 253.736,-231.314 229,-180 203.489,-127.079 263.117,-71.9205 304.176,-41.8781"/>
<polygon fill="grey" stroke="grey" stroke-width="2" points="306.256,-44.6932 312.363,-36.0355 302.19,-38.9951 306.256,-44.6932"/>
</g>
<!-- 6 -->
<g id="node7" class="node"><title>6</title>
<path fill="none" stroke="#d89556" stroke-width="2" d="M701.5,-252C701.5,-252 588.5,-252 588.5,-252 582.5,-252 576.5,-246 576.5,-240 576.5,-240 576.5,-228 576.5,-228 576.5,-222 582.5,-216 588.5,-216 588.5,-216 701.5,-216 701.5,-216 707.5,-216 713.5,-222 713.5,-228 713.5,-228 713.5,-240 713.5,-240 713.5,-246 707.5,-252 701.5,-252"/>
<text text-anchor="middle" x="645" y="-231.5" font-family="sans" font-size="10.00">analyze_escape_profiles</text>
</g>
<!-- 5&#45;&gt;6 -->
<g id="edge19" class="edge"><title>5&#45;&gt;6</title>
<path fill="none" stroke="grey" stroke-width="2" d="M449.027,-287.966C486.159,-277.93 533.295,-265.19 572.033,-254.721"/>
<polygon fill="grey" stroke="grey" stroke-width="2" points="572.95,-258.099 581.69,-252.111 571.123,-251.341 572.95,-258.099"/>
</g>
<!-- 7 -->
<g id="node8" class="node"><title>7</title>
<path fill="none" stroke="#78d856" stroke-width="2" d="M345.5,-180C345.5,-180 250.5,-180 250.5,-180 244.5,-180 238.5,-174 238.5,-168 238.5,-168 238.5,-156 238.5,-156 238.5,-150 244.5,-144 250.5,-144 250.5,-144 345.5,-144 345.5,-144 351.5,-144 357.5,-150 357.5,-156 357.5,-156 357.5,-168 357.5,-168 357.5,-174 351.5,-180 345.5,-180"/>
<text text-anchor="middle" x="298" y="-159.5" font-family="sans" font-size="10.00">mds_escape_profiles</text>
</g>
<!-- 5&#45;&gt;7 -->
<g id="edge21" class="edge"><title>5&#45;&gt;7</title>
<path fill="none" stroke="grey" stroke-width="2" d="M375.385,-287.871C360.123,-263.244 331.86,-217.638 314.041,-188.885"/>
<polygon fill="grey" stroke="grey" stroke-width="2" points="316.895,-186.846 308.653,-180.189 310.945,-190.533 316.895,-186.846"/>
</g>
<!-- 8 -->
<g id="node9" class="node"><title>8</title>
<path fill="none" stroke="#569ad8" stroke-width="2" d="M402.5,-108C402.5,-108 349.5,-108 349.5,-108 343.5,-108 337.5,-102 337.5,-96 337.5,-96 337.5,-84 337.5,-84 337.5,-78 343.5,-72 349.5,-72 349.5,-72 402.5,-72 402.5,-72 408.5,-72 414.5,-78 414.5,-84 414.5,-84 414.5,-96 414.5,-96 414.5,-102 408.5,-108 402.5,-108"/>
<text text-anchor="middle" x="376" y="-87.5" font-family="sans" font-size="10.00">output_pdbs</text>
</g>
<!-- 5&#45;&gt;8 -->
<g id="edge22" class="edge"><title>5&#45;&gt;8</title>
<path fill="none" stroke="grey" stroke-width="2" d="M385.199,-287.849C383.469,-250.832 379.373,-163.181 377.28,-118.386"/>
<polygon fill="grey" stroke="grey" stroke-width="2" points="380.768,-118.058 376.805,-108.232 373.776,-118.385 380.768,-118.058"/>
</g>
<!-- 11 -->
<g id="node12" class="node"><title>11</title>
<path fill="none" stroke="#b6d856" stroke-width="2" d="M502,-180C502,-180 426,-180 426,-180 420,-180 414,-174 414,-168 414,-168 414,-156 414,-156 414,-150 420,-144 426,-144 426,-144 502,-144 502,-144 508,-144 514,-150 514,-156 514,-156 514,-168 514,-168 514,-174 508,-180 502,-180"/>
<text text-anchor="middle" x="464" y="-159.5" font-family="sans" font-size="10.00">make_supp_data</text>
</g>
<!-- 5&#45;&gt;11 -->
<g id="edge26" class="edge"><title>5&#45;&gt;11</title>
<path fill="none" stroke="grey" stroke-width="2" d="M395.409,-287.871C408.878,-263.35 433.771,-218.032 449.576,-189.259"/>
<polygon fill="grey" stroke="grey" stroke-width="2" points="452.811,-190.639 454.558,-180.189 446.676,-187.269 452.811,-190.639"/>
</g>
<!-- 12 -->
<g id="node13" class="node"><title>12</title>
<path fill="none" stroke="#d85656" stroke-width="2" d="M546,-252C546,-252 464,-252 464,-252 458,-252 452,-246 452,-240 452,-240 452,-228 452,-228 452,-222 458,-216 464,-216 464,-216 546,-216 546,-216 552,-216 558,-222 558,-228 558,-228 558,-240 558,-240 558,-246 552,-252 546,-252"/>
<text text-anchor="middle" x="505" y="-231.5" font-family="sans" font-size="10.00">escape_selections</text>
</g>
<!-- 5&#45;&gt;12 -->
<g id="edge28" class="edge"><title>5&#45;&gt;12</title>
<path fill="none" stroke="grey" stroke-width="2" d="M415.111,-287.876C430.67,-278.724 450.019,-267.342 466.776,-257.485"/>
<polygon fill="grey" stroke="grey" stroke-width="2" points="468.933,-260.277 475.777,-252.19 465.383,-254.243 468.933,-260.277"/>
</g>
<!-- 6&#45;&gt;0 -->
<g id="edge6" class="edge"><title>6&#45;&gt;0</title>
<path fill="none" stroke="grey" stroke-width="2" d="M690.547,-215.977C706.247,-207.658 722.108,-195.925 731,-180 757.876,-131.868 718.022,-99.0727 670,-72 624.422,-46.3049 479.575,-30.5583 397.394,-23.4614"/>
<polygon fill="grey" stroke="grey" stroke-width="2" points="397.465,-19.955 387.206,-22.5981 396.874,-26.93 397.465,-19.955"/>
</g>
<!-- 9 -->
<g id="node10" class="node"><title>9</title>
<path fill="none" stroke="#56d87b" stroke-width="2" d="M709.5,-180C709.5,-180 620.5,-180 620.5,-180 614.5,-180 608.5,-174 608.5,-168 608.5,-168 608.5,-156 608.5,-156 608.5,-150 614.5,-144 620.5,-144 620.5,-144 709.5,-144 709.5,-144 715.5,-144 721.5,-150 721.5,-156 721.5,-156 721.5,-168 721.5,-168 721.5,-174 715.5,-180 709.5,-180"/>
<text text-anchor="middle" x="665" y="-159.5" font-family="sans" font-size="10.00">circulating_variants</text>
</g>
<!-- 6&#45;&gt;9 -->
<g id="edge23" class="edge"><title>6&#45;&gt;9</title>
<path fill="none" stroke="grey" stroke-width="2" d="M649.944,-215.697C652.172,-207.898 654.855,-198.509 657.335,-189.829"/>
<polygon fill="grey" stroke="grey" stroke-width="2" points="660.731,-190.681 660.113,-180.104 654,-188.758 660.731,-190.681"/>
</g>
<!-- 10 -->
<g id="node11" class="node"><title>10</title>
<path fill="none" stroke="#56d8b9" stroke-width="2" d="M627,-108C627,-108 579,-108 579,-108 573,-108 567,-102 567,-96 567,-96 567,-84 567,-84 567,-78 573,-72 579,-72 579,-72 627,-72 627,-72 633,-72 639,-78 639,-84 639,-84 639,-96 639,-96 639,-102 633,-108 627,-108"/>
<text text-anchor="middle" x="603" y="-87.5" font-family="sans" font-size="10.00">crowe_evol</text>
</g>
<!-- 6&#45;&gt;10 -->
<g id="edge24" class="edge"><title>6&#45;&gt;10</title>
<path fill="none" stroke="grey" stroke-width="2" d="M624.177,-215.615C614.542,-206.198 604.115,-193.697 599,-180 591.582,-160.136 593.256,-136.023 596.412,-117.909"/>
<polygon fill="grey" stroke="grey" stroke-width="2" points="599.861,-118.506 598.383,-108.015 592.996,-117.138 599.861,-118.506"/>
</g>
<!-- 6&#45;&gt;11 -->
<g id="edge27" class="edge"><title>6&#45;&gt;11</title>
<path fill="none" stroke="grey" stroke-width="2" d="M600.722,-215.876C575.649,-206.179 544.104,-193.98 517.635,-183.743"/>
<polygon fill="grey" stroke="grey" stroke-width="2" points="518.723,-180.411 508.134,-180.068 516.198,-186.94 518.723,-180.411"/>
</g>
<!-- 7&#45;&gt;0 -->
<g id="edge7" class="edge"><title>7&#45;&gt;0</title>
<path fill="none" stroke="grey" stroke-width="2" d="M302.946,-143.871C309.964,-119.564 322.883,-74.8187 331.2,-46.0132"/>
<polygon fill="grey" stroke="grey" stroke-width="2" points="334.625,-46.7677 334.037,-36.1893 327.9,-44.8259 334.625,-46.7677"/>
</g>
<!-- 8&#45;&gt;0 -->
<g id="edge8" class="edge"><title>8&#45;&gt;0</title>
<path fill="none" stroke="grey" stroke-width="2" d="M366.854,-71.6966C362.597,-63.6436 357.444,-53.8945 352.734,-44.9824"/>
<polygon fill="grey" stroke="grey" stroke-width="2" points="355.808,-43.3097 348.041,-36.1043 349.62,-46.5809 355.808,-43.3097"/>
</g>
<!-- 9&#45;&gt;0 -->
<g id="edge9" class="edge"><title>9&#45;&gt;0</title>
<path fill="none" stroke="grey" stroke-width="2" d="M666.996,-143.958C668.321,-123.832 667.087,-90.7304 648,-72 613.377,-38.0239 477.164,-25.6669 397.617,-21.2949"/>
<polygon fill="grey" stroke="grey" stroke-width="2" points="397.428,-17.7803 387.259,-20.753 397.063,-24.7707 397.428,-17.7803"/>
</g>
<!-- 9&#45;&gt;10 -->
<g id="edge25" class="edge"><title>9&#45;&gt;10</title>
<path fill="none" stroke="grey" stroke-width="2" d="M649.674,-143.697C642.241,-135.305 633.177,-125.07 625.02,-115.861"/>
<polygon fill="grey" stroke="grey" stroke-width="2" points="627.4,-113.27 618.15,-108.104 622.16,-117.911 627.4,-113.27"/>
</g>
<!-- 10&#45;&gt;0 -->
<g id="edge10" class="edge"><title>10&#45;&gt;0</title>
<path fill="none" stroke="grey" stroke-width="2" d="M566.794,-76.2866C562.171,-74.7821 557.487,-73.3158 553,-72 500.696,-56.6615 440.362,-41.9873 397.117,-31.9848"/>
<polygon fill="grey" stroke="grey" stroke-width="2" points="397.864,-28.5654 387.334,-29.7343 396.295,-35.3872 397.864,-28.5654"/>
</g>
<!-- 11&#45;&gt;0 -->
<g id="edge11" class="edge"><title>11&#45;&gt;0</title>
<path fill="none" stroke="grey" stroke-width="2" d="M459.37,-143.954C453.47,-124.728 441.729,-93.3625 423,-72 412.369,-59.8748 398.296,-49.5358 384.715,-41.2961"/>
<polygon fill="grey" stroke="grey" stroke-width="2" points="386.308,-38.1743 375.901,-36.1868 382.797,-44.2302 386.308,-38.1743"/>
</g>
<!-- 12&#45;&gt;0 -->
<g id="edge12" class="edge"><title>12&#45;&gt;0</title>
<path fill="none" stroke="grey" stroke-width="2" d="M514.231,-215.993C522.899,-197.62 533.137,-167.783 523,-144 500.452,-91.0984 441.88,-57.4467 396.821,-38.5496"/>
<polygon fill="grey" stroke="grey" stroke-width="2" points="398.012,-35.2554 387.429,-34.7395 395.38,-41.742 398.012,-35.2554"/>
</g>
<!-- 13 -->
<g id="node14" class="node"><title>13</title>
<path fill="none" stroke="#d87556" stroke-width="2" d="M563,-468C563,-468 477,-468 477,-468 471,-468 465,-462 465,-456 465,-456 465,-444 465,-444 465,-438 471,-432 477,-432 477,-432 563,-432 563,-432 569,-432 575,-438 575,-444 575,-444 575,-456 575,-456 575,-462 569,-468 563,-468"/>
<text text-anchor="middle" x="520" y="-447.5" font-family="sans" font-size="10.00">get_mut_bind_expr</text>
</g>
<!-- 13&#45;&gt;4 -->
<g id="edge15" class="edge"><title>13&#45;&gt;4</title>
<path fill="none" stroke="grey" stroke-width="2" d="M474.255,-431.876C448.236,-422.137 415.474,-409.872 388.053,-399.608"/>
<polygon fill="grey" stroke="grey" stroke-width="2" points="389.189,-396.296 378.597,-396.068 386.735,-402.852 389.189,-396.296"/>
</g>
<!-- 13&#45;&gt;6 -->
<g id="edge20" class="edge"><title>13&#45;&gt;6</title>
<path fill="none" stroke="grey" stroke-width="2" d="M530.018,-431.849C551.869,-394.44 603.924,-305.322 629.825,-260.98"/>
<polygon fill="grey" stroke="grey" stroke-width="2" points="632.913,-262.633 634.934,-252.232 626.868,-259.102 632.913,-262.633"/>
</g>
<!-- 13&#45;&gt;12 -->
<g id="edge29" class="edge"><title>13&#45;&gt;12</title>
<path fill="none" stroke="grey" stroke-width="2" d="M518.798,-431.849C516.203,-394.832 510.059,-307.181 506.92,-262.386"/>
<polygon fill="grey" stroke="grey" stroke-width="2" points="510.399,-261.963 506.208,-252.232 503.416,-262.453 510.399,-261.963"/>
</g>
<!-- 14 -->
<g id="node15" class="node"><title>14</title>
<path fill="none" stroke="#97d856" stroke-width="2" d="M434.5,-468C434.5,-468 359.5,-468 359.5,-468 353.5,-468 347.5,-462 347.5,-456 347.5,-456 347.5,-444 347.5,-444 347.5,-438 353.5,-432 359.5,-432 359.5,-432 434.5,-432 434.5,-432 440.5,-432 446.5,-438 446.5,-444 446.5,-444 446.5,-456 446.5,-456 446.5,-462 440.5,-468 434.5,-468"/>
<text text-anchor="middle" x="397" y="-447.5" font-family="sans" font-size="10.00">get_variant_expr</text>
</g>
<!-- 14&#45;&gt;4 -->
<g id="edge16" class="edge"><title>14&#45;&gt;4</title>
<path fill="none" stroke="grey" stroke-width="2" d="M381.18,-431.697C373.43,-423.22 363.961,-412.864 355.476,-403.583"/>
<polygon fill="grey" stroke="grey" stroke-width="2" points="357.969,-401.123 348.638,-396.104 352.803,-405.846 357.969,-401.123"/>
</g>
<!-- 15 -->
<g id="node16" class="node"><title>15</title>
<path fill="none" stroke="#567bd8" stroke-width="2" d="M317,-468C317,-468 243,-468 243,-468 237,-468 231,-462 231,-456 231,-456 231,-444 231,-444 231,-438 237,-432 243,-432 243,-432 317,-432 317,-432 323,-432 329,-438 329,-444 329,-444 329,-456 329,-456 329,-462 323,-468 317,-468"/>
<text text-anchor="middle" x="280" y="-447.5" font-family="sans" font-size="10.00">get_variant_bind</text>
</g>
<!-- 15&#45;&gt;4 -->
<g id="edge17" class="edge"><title>15&#45;&gt;4</title>
<path fill="none" stroke="grey" stroke-width="2" d="M293.101,-431.697C299.391,-423.389 307.047,-413.277 313.965,-404.141"/>
<polygon fill="grey" stroke="grey" stroke-width="2" points="316.804,-406.19 320.05,-396.104 311.223,-401.964 316.804,-406.19"/>
</g>
</g>
</svg>
